<?xml version="1.0" encoding="utf-8"?>
<!-- Generator: Adobe Illustrator 23.1.0, SVG Export Plug-In . SVG Version: 6.00 Build 0)  -->
<svg version="1.1" id="Calque_1" xmlns="http://www.w3.org/2000/svg" xmlns:xlink="http://www.w3.org/1999/xlink" x="0px" y="0px"
	 viewBox="0 0 1000 900" style="enable-background:new 0 0 1000 900;" xml:space="preserve">
<style type="text/css">
	.st0{fill:#578DE4;}
	.st1{fill:#C6C5CB;}
	.st2{fill:#D8D8DA;}
	.st3{fill:#59A4FF;}
	.st4{fill:#ACABB1;}
</style>
<g>
	<g>
		<g>
			<path class="st0" d="M391.32,461.5l-35.44-35.44c-0.01-0.01-0.02-0.02-0.03-0.03l-7.32-7.32c-0.91-0.91-2.38-0.91-3.29,0
				l-3.62,3.62l-4.35-4.35c12.14-13.85,11.62-35-1.59-48.21l0,0c-13.76-13.76-36.15-13.76-49.91,0c-13.76,13.76-13.76,36.15,0,49.91
				c6.88,6.88,15.92,10.32,24.96,10.32c8.31,0,16.62-2.91,23.26-8.73l4.35,4.35l-3.62,3.62c-0.91,0.91-0.91,2.38,0,3.29l7.34,7.34
				c0.02,0.02,0.04,0.04,0.06,0.06l35.4,35.4c0.44,0.44,1.03,0.68,1.64,0.68c0.62,0,1.21-0.25,1.64-0.68l10.53-10.53
				c0.44-0.44,0.68-1.03,0.68-1.64S391.75,461.94,391.32,461.5z M332.38,416.38C332.38,416.38,332.38,416.38,332.38,416.38
				C332.38,416.38,332.38,416.38,332.38,416.38c-11.95,11.95-31.39,11.95-43.33,0c-11.94-11.95-11.94-31.39,0-43.33
				c5.97-5.97,13.82-8.96,21.67-8.96c7.85,0,15.69,2.99,21.67,8.96C344.33,385,344.33,404.44,332.38,416.38z M339.64,430.87
				l7.24-7.24l4.05,4.05l-7.24,7.24L339.64,430.87z M379.15,470.38l-32.17-32.17l7.24-7.24l32.17,32.17L379.15,470.38z"/>
		</g>
	</g>
	<g>
		<g>
			<path class="st0" d="M328.34,377.09c-9.72-9.72-25.53-9.72-35.25,0c-9.72,9.72-9.72,25.53,0,35.25c4.71,4.71,10.97,7.3,17.62,7.3
				c6.66,0,12.92-2.59,17.62-7.3c4.71-4.71,7.3-10.97,7.3-17.62C335.64,388.06,333.05,381.8,328.34,377.09z M325.05,409.05
				c-3.83,3.83-8.92,5.94-14.33,5.94c-5.41,0-10.51-2.11-14.34-5.94c-7.9-7.9-7.9-20.76,0-28.67c3.95-3.95,9.14-5.93,14.34-5.93
				c5.19,0,10.38,1.98,14.33,5.93c3.83,3.83,5.94,8.92,5.94,14.34C330.99,400.13,328.88,405.22,325.05,409.05z"/>
		</g>
	</g>
	<g>
		<path class="st1" d="M319.5,392.1c-4.67-2.7-12.32-2.7-16.99,0c-2.34,1.35-3.5,3.13-3.5,4.9v1.23c0,1.78,1.17,3.56,3.5,4.9
			c4.67,2.7,12.32,2.7,16.99,0c2.34-1.35,3.5-3.13,3.5-4.9V397C323,395.23,321.83,393.45,319.5,392.1z"/>
		<path class="st2" d="M302.5,401.91c-4.67-2.7-4.67-7.11,0-9.81c4.67-2.7,12.32-2.7,16.99,0c4.67,2.7,4.67,7.11,0,9.81
			S307.18,404.61,302.5,401.91z"/>
		<path class="st3" d="M303.96,401.07c-3.87-2.24-3.87-5.89,0-8.13c3.87-2.24,10.21-2.24,14.08,0s3.87,5.89,0,8.13
			C314.17,403.3,307.83,403.3,303.96,401.07z"/>
		<path class="st1" d="M303.96,393.62c3.87-2.24,10.21-2.24,14.08,0c1.79,1.03,2.75,2.37,2.89,3.72c0.16-1.58-0.8-3.2-2.89-4.4
			c-3.87-2.24-10.21-2.24-14.08,0c-2.09,1.2-3.05,2.82-2.89,4.4C301.21,395.99,302.18,394.65,303.96,393.62z"/>
		<path class="st4" d="M313.63,396.87l-1.65-5.04l0,0c0-0.14-0.09-0.29-0.28-0.4c-0.38-0.22-1-0.22-1.39,0
			c-0.19,0.11-0.29,0.25-0.29,0.4l-1.65,5.04c-0.24,0.53-0.01,1.11,0.7,1.52c1.06,0.61,2.8,0.61,3.86,0
			C313.64,397.98,313.87,397.39,313.63,396.87z"/>
		<path class="st1" d="M315.25,389.65c-2.34-1.35-6.16-1.35-8.5,0c-1.21,0.7-1.79,1.62-1.75,2.54l0,0.66c0,0.89,0.58,1.78,1.75,2.45
			c2.34,1.35,6.16,1.35,8.5,0c1.17-0.67,1.75-1.56,1.75-2.45v-0.74C317,391.21,316.42,390.32,315.25,389.65z"/>
		<path class="st2" d="M306.75,394.55c-2.34-1.35-2.34-3.56,0-4.9c2.34-1.35,6.16-1.35,8.5,0c2.34,1.35,2.34,3.56,0,4.9
			C312.91,395.9,309.09,395.9,306.75,394.55z"/>
		<path class="st3" d="M307.81,393.94c-1.75-1.01-1.75-2.67,0-3.68c1.75-1.01,4.62-1.01,6.37,0c1.75,1.01,1.75,2.67,0,3.68
			C312.43,394.95,309.57,394.95,307.81,393.94z"/>
		<path class="st1" d="M307.81,390.62c1.75-1.01,4.62-1.01,6.37,0c0.8,0.46,1.23,1.05,1.3,1.66c0.09-0.73-0.35-1.47-1.3-2.02
			c-1.75-1.01-4.62-1.01-6.37,0c-0.95,0.55-1.39,1.29-1.3,2.02C306.58,391.67,307.02,391.08,307.81,390.62z"/>
		<path class="st4" d="M312.64,391.54l-0.74-4.67v0l0,0c0-0.13-0.09-0.26-0.26-0.37c-0.35-0.2-0.92-0.2-1.27,0
			c-0.18,0.1-0.27,0.23-0.27,0.37l-0.74,4.67c-0.09,0.3,0.06,0.62,0.46,0.85c0.65,0.38,1.71,0.38,2.36,0
			C312.58,392.17,312.73,391.84,312.64,391.54z"/>
		<path class="st1" d="M313.12,384.71c-1.17-0.67-3.08-0.67-4.25,0c-0.58,0.34-0.88,0.78-0.88,1.23v0.59c0,0.44,0.29,0.89,0.88,1.23
			c1.17,0.67,3.08,0.67,4.25,0c0.58-0.34,0.88-0.78,0.88-1.23v-0.59C314,385.49,313.71,385.04,313.12,384.71z"/>
		<path class="st2" d="M308.88,387.16c-1.17-0.67-1.17-1.78,0-2.45c1.17-0.67,3.08-0.67,4.25,0s1.17,1.78,0,2.45
			C311.96,387.83,310.04,387.83,308.88,387.16z"/>
		<path class="st3" d="M309.43,386.84c-0.86-0.5-0.86-1.31,0-1.81c0.86-0.5,2.27-0.5,3.13,0c0.86,0.5,0.86,1.31,0,1.81
			C311.7,387.33,310.3,387.33,309.43,386.84z"/>
		<path class="st1" d="M309.43,385.28c0.86-0.5,2.27-0.5,3.13,0c0.38,0.22,0.59,0.49,0.64,0.78c0.06-0.37-0.15-0.75-0.64-1.03
			c-0.86-0.5-2.27-0.5-3.13,0c-0.49,0.28-0.7,0.66-0.64,1.03C308.85,385.77,309.06,385.49,309.43,385.28z"/>
	</g>
</g>
</svg>
